auth-dictionary<?xml version="1.0" standalone="no"?><!DOCTYPE svg PUBLIC "-//W3C//DTD SVG 1.1//EN" "http://www.w3.org/Graphics/SVG/1.1/DTD/svg11.dtd"><svg t="1532423826879" class="icon" style="" viewBox="0 0 1024 1024" version="1.1" xmlns="http://www.w3.org/2000/svg" p-id="4508" xmlns:xlink="http://www.w3.org/1999/xlink" width="200" height="200"><defs><style type="text/css"></style></defs><path d="M662.367683 954.297498" p-id="4509"></path><path d="M221.652216 905.573797c-39.881312 0-72.372308-26.576285-72.372308-57.602929 0-32.490995 32.490995-57.59065 72.372308-57.59065l257.671571 0c-9.406231-15.72924-18.501376-32.899294-27.259854-51.688219L252.655324 738.691999 252.655324 119.925347l531.659759 0 0 293.52208 62.006216 26.755364L846.321298 94.813413c0-13.293771-14.758122-25.111934-31.003108-25.111934L221.652216 69.701478c-75.324546 0-135.866411 48.735981-135.866411 107.814518l0 668.99052c0 60.542888 60.542888 107.790982 135.866411 107.790982l440.714444 0c-5.470595-1.523703-41.297568-12.742209-85.85846-48.724725L221.652216 905.572774zM147.81658 177.515996c0-22.160719 16.244986-42.833551 41.345664-51.688219l0 615.815437c-14.758122 2.963495-28.051893 7.390317-41.345664 13.293771L147.81658 177.515996z" p-id="4510"></path><path d="M678.791747 389.995295 420.280042 501.907131c44.340881 372.465037 245.361197 434.396551 258.511705 438.064081 0 0 215.080543-65.60416 259.421424-438.064081L678.791747 389.995295 678.791747 389.995295zM678.854169 900.360052l-0.061398-0.019443 0.455371-413.815817 221.662449 38.872333C862.95207 844.210217 678.854169 900.360052 678.854169 900.360052L678.854169 900.360052zM678.854169 900.360052" p-id="4511"></path></svg>